Coordinates
version=1
nRows=9
nColumns=63
inDegrees=yes

Units are S.I. units (second, meters, Newtons, ...)
If the header above contains a line with 'inDegrees', this indicates whether rotational values are in degrees (yes) or radians (no).

endheader
time	pelvis_tilt	pelvis_list	pelvis_rotation	pelvis_tx	pelvis_ty	pelvis_tz	hip_flexion_r	hip_adduction_r	hip_rotation_r	knee_angle_r	knee_angle_r_beta	ankle_angle_r	subtalar_angle_r	mtp_angle_r	hip_flexion_l	hip_adduction_l	hip_rotation_l	knee_angle_l	knee_angle_l_beta	ankle_angle_l	subtalar_angle_l	mtp_angle_l	L5_S1_Flex_Ext	L5_S1_Lat_Bending	L5_S1_axial_rotation	L4_L5_Flex_Ext	L4_L5_Lat_Bending	L4_L5_axial_rotation	L3_L4_Flex_Ext	L3_L4_Lat_Bending	L3_L4_axial_rotation	L2_L3_Flex_Ext	L2_L3_Lat_Bending	L2_L3_axial_rotation	L1_L2_Flex_Ext	L1_L2_Lat_Bending	L1_L2_axial_rotation	L1_T12_Flex_Ext	L1_T12_Lat_Bending	L1_T12_axial_rotation	Abs_r3	Abs_r2	Abs_r1	Abs_t1	Abs_t2	neck_flexion	neck_bending	neck_rotation	arm_flex_r	arm_add_r	arm_rot_r	elbow_flex_r	pro_sup_r	wrist_flex_r	wrist_dev_r	arm_flex_l	arm_add_l	arm_rot_l	elbow_flex_l	pro_sup_l	wrist_flex_l	wrist_dev_l
      2.23255814	      1.36103310	      1.37301478	    105.32263978	      0.22409088	      0.66206626	      0.81562510	     -4.42182211	      3.78821456	    -14.86521372	      7.82458672	      0.13656480	     20.80566102	     -1.53095470	      0.00000000	     -3.81452270	     -2.68231623	      4.50053945	      2.97326971	      0.05189335	     26.86715373	     13.83829943	      0.00000000	      0.08491152	      0.45872129	     -0.47968963	      0.15768918	      0.61009932	     -0.50967023	      0.13950114	      1.11533494	     -0.50967023	      0.09704538	      1.11533494	     -0.41972843	      0.07884884	      0.93542445	     -0.38974783	      0.04851844	      0.71055928	     -0.35976722	      0.60651450	      5.18914698	     -2.66788983	      0.00000000	      0.00000000	     21.98980907	     -2.66152938	      3.02874552	      4.62808426	    -13.17629657	     53.81376273	     30.42448740	     86.51130399	      0.30910409	      8.60214106	      7.44817034	     -7.27831385	     56.07391130	     24.97205611	     83.84213987	     -3.76797514	      1.03763170
      2.25581395	      1.24318427	      1.29645619	    105.20390303	      0.22412505	      0.66178570	      0.81665436	     -4.24368663	      3.53672098	    -15.17121907	      7.98025392	      0.13928171	     21.53461886	     -0.87564137	      0.00000000	     -3.70351438	     -2.48003607	      4.70937050	      2.75591770	      0.04809984	     27.18280660	     13.83019738	      0.00000000	      0.07124989	      0.44796609	     -0.57177449	      0.13231817	      0.59579490	     -0.60751039	      0.11705644	      1.08918476	     -0.60751039	      0.08143150	      1.08918476	     -0.50030267	      0.06616265	      0.91349246	     -0.46456677	      0.04071219	      0.69389948	     -0.42883086	      0.50893084	      5.06748204	     -3.18003815	      0.00000000	      0.00000000	     21.66010871	     -2.72545784	      3.09967297	      5.66964505	    -13.10656429	     56.94970368	     29.93468243	     86.54217038	      0.09333164	      8.18365150	      6.55810109	     -7.65455134	     52.67968512	     26.40876439	     85.55983796	     -4.03303402	      2.13319026
      2.27906977	      1.12679795	      1.27712040	    105.15955932	      0.22403984	      0.66149124	      0.81788383	     -4.10678265	      3.32112606	    -15.23646896	      8.16300047	      0.14247124	     22.16603555	     -0.59024468	      0.00000000	     -3.56370367	     -2.29582045	      4.73424980	      2.72581453	      0.04757444	     27.44585609	     13.95491085	      0.00000000	      0.04859368	      0.43672191	     -0.66153470	      0.09024332	      0.58084014	     -0.70288062	      0.07983456	      1.06184566	     -0.70288062	      0.05553772	      1.06184566	     -0.57884286	      0.04512409	      0.89056332	     -0.53749694	      0.02776643	      0.67648224	     -0.49615102	      0.34709979	      4.94028561	     -3.67925752	      0.00000000	      0.00000000	     21.18320713	     -2.48002699	      3.06280204	      6.60381356	    -13.04793290	     59.71387672	     29.60969315	     86.97805143	     -0.22983510	      7.65188573	      5.92691631	     -7.99404086	     50.58195383	     27.57584231	     86.26816988	     -4.45772470	      2.92719573
      2.30232558	      1.04320441	      1.24247158	    105.28622068	      0.22379114	      0.66121101	      0.81932362	     -3.94735448	      3.15762486	    -15.59349081	      8.37453041	      0.14616313	     22.60401616	     -0.21593891	      0.00000000	     -3.36009567	     -2.17090601	      4.72039538	      2.78439009	      0.04859677	     27.50591857	     14.26739452	      0.00000000	      0.02988688	      0.42795542	     -0.72834413	      0.05550292	      0.56918071	     -0.77386564	      0.04910115	      1.04053081	     -0.77386564	      0.03415771	      1.04053081	     -0.63730111	      0.02775296	      0.87268670	     -0.59177960	      0.01707736	      0.66290295	     -0.54625810	      0.21347899	      4.84111732	     -4.05083154	      0.00000000	      0.00000000	     20.65058487	     -2.05408521	      3.08171365	      7.09301730	    -12.91992890	     60.94697506	     29.31243128	     87.46733023	     -0.70283091	      7.13653098	      5.75477862	     -8.28343081	     50.30317861	     28.24787908	     85.99517549	     -5.12240860	      3.07333862
      2.32558140	      0.99124535	      1.21867079	    105.34485520	      0.22353952	      0.66092878	      0.82080274	     -3.79323398	      3.03334147	    -15.80132283	      8.59135392	      0.14994741	     22.67021422	      0.00625883	      0.00000000	     -3.18323367	     -2.07640468	      4.70755789	      2.88973984	      0.05043547	     27.45572642	     14.32202808	      0.00000000	      0.00337603	      0.42028204	     -0.73153826	      0.00626962	      0.55897511	     -0.77725941	      0.00554648	      1.02187374	     -0.77725941	      0.00385846	      1.02187374	     -0.64009598	      0.00313498	      0.85703913	     -0.59437484	      0.00192906	      0.65101687	     -0.54865370	      0.02411463	      4.75431444	     -4.06859637	      0.00000000	      0.00000000	     20.33111316	     -1.51313207	      2.87812019	      7.25249697	    -12.91134925	     61.00739054	     29.35345279	     87.74218991	     -1.07747363	      7.18864834	      5.73123366	     -8.39687019	     49.40803767	     28.82936676	     86.54980614	     -4.31427084	      4.13334023
      2.34883721	      0.98663891	      1.16871180	    105.55040518	      0.22313387	      0.66078115	      0.82245027	     -3.60474180	      2.99032117	    -16.02135806	      8.75324038	      0.15277286	     22.50855444	     -0.03049499	      0.00000000	     -2.91350862	     -2.03602145	      4.81029793	      3.09279679	      0.05397949	     27.28940838	     14.33390414	      0.00000000	     -0.02214532	      0.41398781	     -0.70388933	     -0.04112607	      0.55060379	     -0.74788241	     -0.03638254	      1.00656997	     -0.74788241	     -0.02530988	      1.00656997	     -0.61590316	     -0.02056414	      0.84420395	     -0.57191008	     -0.01265383	      0.64126712	     -0.52791700	     -0.15818179	      4.68311295	     -3.91482127	      0.00000000	      0.00000000	     20.11515620	     -0.88273462	      2.43563196	      7.17467181	    -12.91458786	     60.40876325	     29.31671178	     87.93781971	     -1.70291881	      6.79476355	      6.17061132	     -8.35017738	     49.92157408	     28.73655133	     86.59686306	     -3.80744085	      4.40760192
      2.37209302	      1.04381000	      1.14870154	    105.71174989	      0.22271649	      0.66066713	      0.82397470	     -3.43157618	      3.03231213	    -15.88003351	      8.85293775	      0.15451291	     22.27926713	     -0.36741260	      0.00000000	     -2.69364089	     -2.05059150	      5.47727934	      3.26972192	      0.05706741	     27.07983677	     13.56808439	      0.00000000	     -0.05067393	      0.41398741	     -0.63427480	     -0.09410655	      0.55060325	     -0.67391698	     -0.08325220	      1.00656898	     -0.67391698	     -0.05791523	      1.00656898	     -0.55499045	     -0.04705581	      0.84420312	     -0.51534828	     -0.02895508	      0.64126649	     -0.47570610	     -0.36195880	      4.68310833	     -3.52764617	      0.00000000	      0.00000000	     20.02733664	     -0.27000847	      1.76843599	      6.71236238	    -13.01059267	     58.18350211	     29.69652714	     88.16967329	     -1.70931120	      7.28432190	      6.71994976	     -8.19173053	     50.34619470	     28.50884427	     86.46618824	     -2.41971084	      5.05534218
      2.39534884	      1.11890324	      1.11697990	    106.09838567	      0.22198888	      0.66055121	      0.82535558	     -3.25970231	      3.11242410	    -15.98638808	      8.90658810	      0.15544929	     22.06475209	     -0.85389208	      0.00000000	     -2.41045659	     -2.10610873	      6.01521910	      3.50655206	      0.06120088	     26.89523078	     13.26039806	      0.00000000	     -0.07369709	      0.41474062	     -0.63618563	     -0.13686287	      0.55160503	     -0.67594723	     -0.12107695	      1.00840034	     -0.67594723	     -0.08422841	      1.00840034	     -0.55666243	     -0.06843512	      0.84573907	     -0.51690082	     -0.04211052	      0.64243322	     -0.47713922	     -0.52641097	      4.69162885	     -3.53827361	      0.00000000	      0.00000000	     20.04134913	      0.47260819	      1.46521624	      6.38613076	    -13.06028592	     56.54282287	     29.87258438	     88.25395299	     -1.96304207	      7.10911268	      7.07713786	     -8.14819184	     50.86557586	     28.47746912	     86.10686377	     -1.66541568	      5.57167206
      2.41860465	      1.21026692	      1.07526934	    106.23623070	      0.22162002	      0.66029395	      0.82635048	     -3.03637358	      3.19788587	    -15.73622501	      9.04679582	      0.15789637	     21.78744939	     -1.61688795	      0.00000000	     -2.20453464	     -2.17413618	      6.29055698	      3.69232103	      0.06444316	     26.76337640	     13.02203294	      0.00000000	     -0.09270481	      0.41811326	     -0.62674684	     -0.17216211	      0.55609064	     -0.66591852	     -0.15230474	      1.01660059	     -0.66591852	     -0.10595233	      1.01660059	     -0.54840349	     -0.08608569	      0.85261657	     -0.50923181	     -0.05297153	      0.64765745	     -0.47006013	     -0.66218122	      4.72978087	     -3.48577792	      0.00000000	      0.00000000	     20.24750967	      0.99038005	      1.27990924	      5.97517159	    -13.08188244	     54.13762229	     30.29638020	     88.32777834	     -1.16646395	      8.10078610	      6.94268815	     -8.09712202	     49.67115106	     28.84168865	     86.18688094	     -0.49738301	      6.60362527
